G75*
%MOIN*%
%OFA0B0*%
%FSLAX25Y25*%
%IPPOS*%
%LPD*%
%AMOC8*
5,1,8,0,0,1.08239X$1,22.5*
%
%ADD10C,0.00000*%
D10*
X0017600Y0002600D02*
X0327600Y0002600D01*
X0327962Y0002604D01*
X0328325Y0002618D01*
X0328687Y0002639D01*
X0329048Y0002670D01*
X0329408Y0002709D01*
X0329767Y0002757D01*
X0330125Y0002814D01*
X0330482Y0002879D01*
X0330837Y0002953D01*
X0331190Y0003036D01*
X0331541Y0003127D01*
X0331889Y0003226D01*
X0332235Y0003334D01*
X0332579Y0003450D01*
X0332919Y0003575D01*
X0333256Y0003707D01*
X0333590Y0003848D01*
X0333921Y0003997D01*
X0334248Y0004154D01*
X0334571Y0004318D01*
X0334890Y0004490D01*
X0335204Y0004670D01*
X0335515Y0004858D01*
X0335820Y0005053D01*
X0336121Y0005255D01*
X0336417Y0005465D01*
X0336707Y0005681D01*
X0336993Y0005905D01*
X0337273Y0006135D01*
X0337547Y0006372D01*
X0337815Y0006616D01*
X0338078Y0006866D01*
X0338334Y0007122D01*
X0338584Y0007385D01*
X0338828Y0007653D01*
X0339065Y0007927D01*
X0339295Y0008207D01*
X0339519Y0008493D01*
X0339735Y0008783D01*
X0339945Y0009079D01*
X0340147Y0009380D01*
X0340342Y0009685D01*
X0340530Y0009996D01*
X0340710Y0010310D01*
X0340882Y0010629D01*
X0341046Y0010952D01*
X0341203Y0011279D01*
X0341352Y0011610D01*
X0341493Y0011944D01*
X0341625Y0012281D01*
X0341750Y0012621D01*
X0341866Y0012965D01*
X0341974Y0013311D01*
X0342073Y0013659D01*
X0342164Y0014010D01*
X0342247Y0014363D01*
X0342321Y0014718D01*
X0342386Y0015075D01*
X0342443Y0015433D01*
X0342491Y0015792D01*
X0342530Y0016152D01*
X0342561Y0016513D01*
X0342582Y0016875D01*
X0342596Y0017238D01*
X0342600Y0017600D01*
X0342600Y0207600D01*
X0342596Y0207962D01*
X0342582Y0208325D01*
X0342561Y0208687D01*
X0342530Y0209048D01*
X0342491Y0209408D01*
X0342443Y0209767D01*
X0342386Y0210125D01*
X0342321Y0210482D01*
X0342247Y0210837D01*
X0342164Y0211190D01*
X0342073Y0211541D01*
X0341974Y0211889D01*
X0341866Y0212235D01*
X0341750Y0212579D01*
X0341625Y0212919D01*
X0341493Y0213256D01*
X0341352Y0213590D01*
X0341203Y0213921D01*
X0341046Y0214248D01*
X0340882Y0214571D01*
X0340710Y0214890D01*
X0340530Y0215204D01*
X0340342Y0215515D01*
X0340147Y0215820D01*
X0339945Y0216121D01*
X0339735Y0216417D01*
X0339519Y0216707D01*
X0339295Y0216993D01*
X0339065Y0217273D01*
X0338828Y0217547D01*
X0338584Y0217815D01*
X0338334Y0218078D01*
X0338078Y0218334D01*
X0337815Y0218584D01*
X0337547Y0218828D01*
X0337273Y0219065D01*
X0336993Y0219295D01*
X0336707Y0219519D01*
X0336417Y0219735D01*
X0336121Y0219945D01*
X0335820Y0220147D01*
X0335515Y0220342D01*
X0335204Y0220530D01*
X0334890Y0220710D01*
X0334571Y0220882D01*
X0334248Y0221046D01*
X0333921Y0221203D01*
X0333590Y0221352D01*
X0333256Y0221493D01*
X0332919Y0221625D01*
X0332579Y0221750D01*
X0332235Y0221866D01*
X0331889Y0221974D01*
X0331541Y0222073D01*
X0331190Y0222164D01*
X0330837Y0222247D01*
X0330482Y0222321D01*
X0330125Y0222386D01*
X0329767Y0222443D01*
X0329408Y0222491D01*
X0329048Y0222530D01*
X0328687Y0222561D01*
X0328325Y0222582D01*
X0327962Y0222596D01*
X0327600Y0222600D01*
X0017600Y0222600D01*
X0017238Y0222596D01*
X0016875Y0222582D01*
X0016513Y0222561D01*
X0016152Y0222530D01*
X0015792Y0222491D01*
X0015433Y0222443D01*
X0015075Y0222386D01*
X0014718Y0222321D01*
X0014363Y0222247D01*
X0014010Y0222164D01*
X0013659Y0222073D01*
X0013311Y0221974D01*
X0012965Y0221866D01*
X0012621Y0221750D01*
X0012281Y0221625D01*
X0011944Y0221493D01*
X0011610Y0221352D01*
X0011279Y0221203D01*
X0010952Y0221046D01*
X0010629Y0220882D01*
X0010310Y0220710D01*
X0009996Y0220530D01*
X0009685Y0220342D01*
X0009380Y0220147D01*
X0009079Y0219945D01*
X0008783Y0219735D01*
X0008493Y0219519D01*
X0008207Y0219295D01*
X0007927Y0219065D01*
X0007653Y0218828D01*
X0007385Y0218584D01*
X0007122Y0218334D01*
X0006866Y0218078D01*
X0006616Y0217815D01*
X0006372Y0217547D01*
X0006135Y0217273D01*
X0005905Y0216993D01*
X0005681Y0216707D01*
X0005465Y0216417D01*
X0005255Y0216121D01*
X0005053Y0215820D01*
X0004858Y0215515D01*
X0004670Y0215204D01*
X0004490Y0214890D01*
X0004318Y0214571D01*
X0004154Y0214248D01*
X0003997Y0213921D01*
X0003848Y0213590D01*
X0003707Y0213256D01*
X0003575Y0212919D01*
X0003450Y0212579D01*
X0003334Y0212235D01*
X0003226Y0211889D01*
X0003127Y0211541D01*
X0003036Y0211190D01*
X0002953Y0210837D01*
X0002879Y0210482D01*
X0002814Y0210125D01*
X0002757Y0209767D01*
X0002709Y0209408D01*
X0002670Y0209048D01*
X0002639Y0208687D01*
X0002618Y0208325D01*
X0002604Y0207962D01*
X0002600Y0207600D01*
X0002600Y0017600D01*
X0002604Y0017238D01*
X0002618Y0016875D01*
X0002639Y0016513D01*
X0002670Y0016152D01*
X0002709Y0015792D01*
X0002757Y0015433D01*
X0002814Y0015075D01*
X0002879Y0014718D01*
X0002953Y0014363D01*
X0003036Y0014010D01*
X0003127Y0013659D01*
X0003226Y0013311D01*
X0003334Y0012965D01*
X0003450Y0012621D01*
X0003575Y0012281D01*
X0003707Y0011944D01*
X0003848Y0011610D01*
X0003997Y0011279D01*
X0004154Y0010952D01*
X0004318Y0010629D01*
X0004490Y0010310D01*
X0004670Y0009996D01*
X0004858Y0009685D01*
X0005053Y0009380D01*
X0005255Y0009079D01*
X0005465Y0008783D01*
X0005681Y0008493D01*
X0005905Y0008207D01*
X0006135Y0007927D01*
X0006372Y0007653D01*
X0006616Y0007385D01*
X0006866Y0007122D01*
X0007122Y0006866D01*
X0007385Y0006616D01*
X0007653Y0006372D01*
X0007927Y0006135D01*
X0008207Y0005905D01*
X0008493Y0005681D01*
X0008783Y0005465D01*
X0009079Y0005255D01*
X0009380Y0005053D01*
X0009685Y0004858D01*
X0009996Y0004670D01*
X0010310Y0004490D01*
X0010629Y0004318D01*
X0010952Y0004154D01*
X0011279Y0003997D01*
X0011610Y0003848D01*
X0011944Y0003707D01*
X0012281Y0003575D01*
X0012621Y0003450D01*
X0012965Y0003334D01*
X0013311Y0003226D01*
X0013659Y0003127D01*
X0014010Y0003036D01*
X0014363Y0002953D01*
X0014718Y0002879D01*
X0015075Y0002814D01*
X0015433Y0002757D01*
X0015792Y0002709D01*
X0016152Y0002670D01*
X0016513Y0002639D01*
X0016875Y0002618D01*
X0017238Y0002604D01*
X0017600Y0002600D01*
X0016100Y0022600D02*
X0016102Y0022761D01*
X0016108Y0022921D01*
X0016118Y0023082D01*
X0016132Y0023242D01*
X0016150Y0023402D01*
X0016171Y0023561D01*
X0016197Y0023720D01*
X0016227Y0023878D01*
X0016260Y0024035D01*
X0016298Y0024192D01*
X0016339Y0024347D01*
X0016384Y0024501D01*
X0016433Y0024654D01*
X0016486Y0024806D01*
X0016542Y0024957D01*
X0016603Y0025106D01*
X0016666Y0025254D01*
X0016734Y0025400D01*
X0016805Y0025544D01*
X0016879Y0025686D01*
X0016957Y0025827D01*
X0017039Y0025965D01*
X0017124Y0026102D01*
X0017212Y0026236D01*
X0017304Y0026368D01*
X0017399Y0026498D01*
X0017497Y0026626D01*
X0017598Y0026751D01*
X0017702Y0026873D01*
X0017809Y0026993D01*
X0017919Y0027110D01*
X0018032Y0027225D01*
X0018148Y0027336D01*
X0018267Y0027445D01*
X0018388Y0027550D01*
X0018512Y0027653D01*
X0018638Y0027753D01*
X0018766Y0027849D01*
X0018897Y0027942D01*
X0019031Y0028032D01*
X0019166Y0028119D01*
X0019304Y0028202D01*
X0019443Y0028282D01*
X0019585Y0028358D01*
X0019728Y0028431D01*
X0019873Y0028500D01*
X0020020Y0028566D01*
X0020168Y0028628D01*
X0020318Y0028686D01*
X0020469Y0028741D01*
X0020622Y0028792D01*
X0020776Y0028839D01*
X0020931Y0028882D01*
X0021087Y0028921D01*
X0021243Y0028957D01*
X0021401Y0028988D01*
X0021559Y0029016D01*
X0021718Y0029040D01*
X0021878Y0029060D01*
X0022038Y0029076D01*
X0022198Y0029088D01*
X0022359Y0029096D01*
X0022520Y0029100D01*
X0022680Y0029100D01*
X0022841Y0029096D01*
X0023002Y0029088D01*
X0023162Y0029076D01*
X0023322Y0029060D01*
X0023482Y0029040D01*
X0023641Y0029016D01*
X0023799Y0028988D01*
X0023957Y0028957D01*
X0024113Y0028921D01*
X0024269Y0028882D01*
X0024424Y0028839D01*
X0024578Y0028792D01*
X0024731Y0028741D01*
X0024882Y0028686D01*
X0025032Y0028628D01*
X0025180Y0028566D01*
X0025327Y0028500D01*
X0025472Y0028431D01*
X0025615Y0028358D01*
X0025757Y0028282D01*
X0025896Y0028202D01*
X0026034Y0028119D01*
X0026169Y0028032D01*
X0026303Y0027942D01*
X0026434Y0027849D01*
X0026562Y0027753D01*
X0026688Y0027653D01*
X0026812Y0027550D01*
X0026933Y0027445D01*
X0027052Y0027336D01*
X0027168Y0027225D01*
X0027281Y0027110D01*
X0027391Y0026993D01*
X0027498Y0026873D01*
X0027602Y0026751D01*
X0027703Y0026626D01*
X0027801Y0026498D01*
X0027896Y0026368D01*
X0027988Y0026236D01*
X0028076Y0026102D01*
X0028161Y0025965D01*
X0028243Y0025827D01*
X0028321Y0025686D01*
X0028395Y0025544D01*
X0028466Y0025400D01*
X0028534Y0025254D01*
X0028597Y0025106D01*
X0028658Y0024957D01*
X0028714Y0024806D01*
X0028767Y0024654D01*
X0028816Y0024501D01*
X0028861Y0024347D01*
X0028902Y0024192D01*
X0028940Y0024035D01*
X0028973Y0023878D01*
X0029003Y0023720D01*
X0029029Y0023561D01*
X0029050Y0023402D01*
X0029068Y0023242D01*
X0029082Y0023082D01*
X0029092Y0022921D01*
X0029098Y0022761D01*
X0029100Y0022600D01*
X0029098Y0022439D01*
X0029092Y0022279D01*
X0029082Y0022118D01*
X0029068Y0021958D01*
X0029050Y0021798D01*
X0029029Y0021639D01*
X0029003Y0021480D01*
X0028973Y0021322D01*
X0028940Y0021165D01*
X0028902Y0021008D01*
X0028861Y0020853D01*
X0028816Y0020699D01*
X0028767Y0020546D01*
X0028714Y0020394D01*
X0028658Y0020243D01*
X0028597Y0020094D01*
X0028534Y0019946D01*
X0028466Y0019800D01*
X0028395Y0019656D01*
X0028321Y0019514D01*
X0028243Y0019373D01*
X0028161Y0019235D01*
X0028076Y0019098D01*
X0027988Y0018964D01*
X0027896Y0018832D01*
X0027801Y0018702D01*
X0027703Y0018574D01*
X0027602Y0018449D01*
X0027498Y0018327D01*
X0027391Y0018207D01*
X0027281Y0018090D01*
X0027168Y0017975D01*
X0027052Y0017864D01*
X0026933Y0017755D01*
X0026812Y0017650D01*
X0026688Y0017547D01*
X0026562Y0017447D01*
X0026434Y0017351D01*
X0026303Y0017258D01*
X0026169Y0017168D01*
X0026034Y0017081D01*
X0025896Y0016998D01*
X0025757Y0016918D01*
X0025615Y0016842D01*
X0025472Y0016769D01*
X0025327Y0016700D01*
X0025180Y0016634D01*
X0025032Y0016572D01*
X0024882Y0016514D01*
X0024731Y0016459D01*
X0024578Y0016408D01*
X0024424Y0016361D01*
X0024269Y0016318D01*
X0024113Y0016279D01*
X0023957Y0016243D01*
X0023799Y0016212D01*
X0023641Y0016184D01*
X0023482Y0016160D01*
X0023322Y0016140D01*
X0023162Y0016124D01*
X0023002Y0016112D01*
X0022841Y0016104D01*
X0022680Y0016100D01*
X0022520Y0016100D01*
X0022359Y0016104D01*
X0022198Y0016112D01*
X0022038Y0016124D01*
X0021878Y0016140D01*
X0021718Y0016160D01*
X0021559Y0016184D01*
X0021401Y0016212D01*
X0021243Y0016243D01*
X0021087Y0016279D01*
X0020931Y0016318D01*
X0020776Y0016361D01*
X0020622Y0016408D01*
X0020469Y0016459D01*
X0020318Y0016514D01*
X0020168Y0016572D01*
X0020020Y0016634D01*
X0019873Y0016700D01*
X0019728Y0016769D01*
X0019585Y0016842D01*
X0019443Y0016918D01*
X0019304Y0016998D01*
X0019166Y0017081D01*
X0019031Y0017168D01*
X0018897Y0017258D01*
X0018766Y0017351D01*
X0018638Y0017447D01*
X0018512Y0017547D01*
X0018388Y0017650D01*
X0018267Y0017755D01*
X0018148Y0017864D01*
X0018032Y0017975D01*
X0017919Y0018090D01*
X0017809Y0018207D01*
X0017702Y0018327D01*
X0017598Y0018449D01*
X0017497Y0018574D01*
X0017399Y0018702D01*
X0017304Y0018832D01*
X0017212Y0018964D01*
X0017124Y0019098D01*
X0017039Y0019235D01*
X0016957Y0019373D01*
X0016879Y0019514D01*
X0016805Y0019656D01*
X0016734Y0019800D01*
X0016666Y0019946D01*
X0016603Y0020094D01*
X0016542Y0020243D01*
X0016486Y0020394D01*
X0016433Y0020546D01*
X0016384Y0020699D01*
X0016339Y0020853D01*
X0016298Y0021008D01*
X0016260Y0021165D01*
X0016227Y0021322D01*
X0016197Y0021480D01*
X0016171Y0021639D01*
X0016150Y0021798D01*
X0016132Y0021958D01*
X0016118Y0022118D01*
X0016108Y0022279D01*
X0016102Y0022439D01*
X0016100Y0022600D01*
X0125159Y0130317D02*
X0125161Y0130410D01*
X0125167Y0130502D01*
X0125177Y0130594D01*
X0125191Y0130685D01*
X0125208Y0130776D01*
X0125230Y0130866D01*
X0125255Y0130955D01*
X0125284Y0131043D01*
X0125317Y0131129D01*
X0125354Y0131214D01*
X0125394Y0131298D01*
X0125438Y0131379D01*
X0125485Y0131459D01*
X0125535Y0131537D01*
X0125589Y0131612D01*
X0125646Y0131685D01*
X0125706Y0131755D01*
X0125769Y0131823D01*
X0125835Y0131888D01*
X0125903Y0131950D01*
X0125974Y0132010D01*
X0126048Y0132066D01*
X0126124Y0132119D01*
X0126202Y0132168D01*
X0126282Y0132215D01*
X0126364Y0132257D01*
X0126448Y0132297D01*
X0126533Y0132332D01*
X0126620Y0132364D01*
X0126708Y0132393D01*
X0126797Y0132417D01*
X0126887Y0132438D01*
X0126978Y0132454D01*
X0127070Y0132467D01*
X0127162Y0132476D01*
X0127255Y0132481D01*
X0127347Y0132482D01*
X0127440Y0132479D01*
X0127532Y0132472D01*
X0127624Y0132461D01*
X0127715Y0132446D01*
X0127806Y0132428D01*
X0127896Y0132405D01*
X0127984Y0132379D01*
X0128072Y0132349D01*
X0128158Y0132315D01*
X0128242Y0132278D01*
X0128325Y0132236D01*
X0128406Y0132192D01*
X0128486Y0132144D01*
X0128563Y0132093D01*
X0128637Y0132038D01*
X0128710Y0131980D01*
X0128780Y0131920D01*
X0128847Y0131856D01*
X0128911Y0131790D01*
X0128973Y0131720D01*
X0129031Y0131649D01*
X0129086Y0131575D01*
X0129138Y0131498D01*
X0129187Y0131419D01*
X0129233Y0131339D01*
X0129275Y0131256D01*
X0129313Y0131172D01*
X0129348Y0131086D01*
X0129379Y0130999D01*
X0129406Y0130911D01*
X0129429Y0130821D01*
X0129449Y0130731D01*
X0129465Y0130640D01*
X0129477Y0130548D01*
X0129485Y0130456D01*
X0129489Y0130363D01*
X0129489Y0130271D01*
X0129485Y0130178D01*
X0129477Y0130086D01*
X0129465Y0129994D01*
X0129449Y0129903D01*
X0129429Y0129813D01*
X0129406Y0129723D01*
X0129379Y0129635D01*
X0129348Y0129548D01*
X0129313Y0129462D01*
X0129275Y0129378D01*
X0129233Y0129295D01*
X0129187Y0129215D01*
X0129138Y0129136D01*
X0129086Y0129059D01*
X0129031Y0128985D01*
X0128973Y0128914D01*
X0128911Y0128844D01*
X0128847Y0128778D01*
X0128780Y0128714D01*
X0128710Y0128654D01*
X0128637Y0128596D01*
X0128563Y0128541D01*
X0128486Y0128490D01*
X0128407Y0128442D01*
X0128325Y0128398D01*
X0128242Y0128356D01*
X0128158Y0128319D01*
X0128072Y0128285D01*
X0127984Y0128255D01*
X0127896Y0128229D01*
X0127806Y0128206D01*
X0127715Y0128188D01*
X0127624Y0128173D01*
X0127532Y0128162D01*
X0127440Y0128155D01*
X0127347Y0128152D01*
X0127255Y0128153D01*
X0127162Y0128158D01*
X0127070Y0128167D01*
X0126978Y0128180D01*
X0126887Y0128196D01*
X0126797Y0128217D01*
X0126708Y0128241D01*
X0126620Y0128270D01*
X0126533Y0128302D01*
X0126448Y0128337D01*
X0126364Y0128377D01*
X0126282Y0128419D01*
X0126202Y0128466D01*
X0126124Y0128515D01*
X0126048Y0128568D01*
X0125974Y0128624D01*
X0125903Y0128684D01*
X0125835Y0128746D01*
X0125769Y0128811D01*
X0125706Y0128879D01*
X0125646Y0128949D01*
X0125589Y0129022D01*
X0125535Y0129097D01*
X0125485Y0129175D01*
X0125438Y0129255D01*
X0125394Y0129336D01*
X0125354Y0129420D01*
X0125317Y0129505D01*
X0125284Y0129591D01*
X0125255Y0129679D01*
X0125230Y0129768D01*
X0125208Y0129858D01*
X0125191Y0129949D01*
X0125177Y0130040D01*
X0125167Y0130132D01*
X0125161Y0130224D01*
X0125159Y0130317D01*
X0206852Y0130317D02*
X0206854Y0130429D01*
X0206860Y0130540D01*
X0206870Y0130652D01*
X0206884Y0130763D01*
X0206901Y0130873D01*
X0206923Y0130983D01*
X0206949Y0131092D01*
X0206978Y0131200D01*
X0207011Y0131306D01*
X0207048Y0131412D01*
X0207089Y0131516D01*
X0207134Y0131619D01*
X0207182Y0131720D01*
X0207233Y0131819D01*
X0207288Y0131916D01*
X0207347Y0132011D01*
X0207408Y0132105D01*
X0207473Y0132196D01*
X0207542Y0132284D01*
X0207613Y0132370D01*
X0207687Y0132454D01*
X0207765Y0132534D01*
X0207845Y0132612D01*
X0207928Y0132688D01*
X0208013Y0132760D01*
X0208101Y0132829D01*
X0208191Y0132895D01*
X0208284Y0132957D01*
X0208379Y0133017D01*
X0208476Y0133073D01*
X0208574Y0133125D01*
X0208675Y0133174D01*
X0208777Y0133219D01*
X0208881Y0133261D01*
X0208986Y0133299D01*
X0209093Y0133333D01*
X0209200Y0133363D01*
X0209309Y0133390D01*
X0209418Y0133412D01*
X0209529Y0133431D01*
X0209639Y0133446D01*
X0209751Y0133457D01*
X0209862Y0133464D01*
X0209974Y0133467D01*
X0210086Y0133466D01*
X0210198Y0133461D01*
X0210309Y0133452D01*
X0210420Y0133439D01*
X0210531Y0133422D01*
X0210641Y0133402D01*
X0210750Y0133377D01*
X0210858Y0133349D01*
X0210965Y0133316D01*
X0211071Y0133280D01*
X0211175Y0133240D01*
X0211278Y0133197D01*
X0211380Y0133150D01*
X0211479Y0133099D01*
X0211577Y0133045D01*
X0211673Y0132987D01*
X0211767Y0132926D01*
X0211858Y0132862D01*
X0211947Y0132795D01*
X0212034Y0132724D01*
X0212118Y0132650D01*
X0212200Y0132574D01*
X0212278Y0132494D01*
X0212354Y0132412D01*
X0212427Y0132327D01*
X0212497Y0132240D01*
X0212563Y0132150D01*
X0212627Y0132058D01*
X0212687Y0131964D01*
X0212744Y0131868D01*
X0212797Y0131769D01*
X0212847Y0131669D01*
X0212893Y0131568D01*
X0212936Y0131464D01*
X0212975Y0131359D01*
X0213010Y0131253D01*
X0213041Y0131146D01*
X0213069Y0131037D01*
X0213092Y0130928D01*
X0213112Y0130818D01*
X0213128Y0130707D01*
X0213140Y0130596D01*
X0213148Y0130485D01*
X0213152Y0130373D01*
X0213152Y0130261D01*
X0213148Y0130149D01*
X0213140Y0130038D01*
X0213128Y0129927D01*
X0213112Y0129816D01*
X0213092Y0129706D01*
X0213069Y0129597D01*
X0213041Y0129488D01*
X0213010Y0129381D01*
X0212975Y0129275D01*
X0212936Y0129170D01*
X0212893Y0129066D01*
X0212847Y0128965D01*
X0212797Y0128865D01*
X0212744Y0128766D01*
X0212687Y0128670D01*
X0212627Y0128576D01*
X0212563Y0128484D01*
X0212497Y0128394D01*
X0212427Y0128307D01*
X0212354Y0128222D01*
X0212278Y0128140D01*
X0212200Y0128060D01*
X0212118Y0127984D01*
X0212034Y0127910D01*
X0211947Y0127839D01*
X0211858Y0127772D01*
X0211767Y0127708D01*
X0211673Y0127647D01*
X0211577Y0127589D01*
X0211479Y0127535D01*
X0211380Y0127484D01*
X0211278Y0127437D01*
X0211175Y0127394D01*
X0211071Y0127354D01*
X0210965Y0127318D01*
X0210858Y0127285D01*
X0210750Y0127257D01*
X0210641Y0127232D01*
X0210531Y0127212D01*
X0210420Y0127195D01*
X0210309Y0127182D01*
X0210198Y0127173D01*
X0210086Y0127168D01*
X0209974Y0127167D01*
X0209862Y0127170D01*
X0209751Y0127177D01*
X0209639Y0127188D01*
X0209529Y0127203D01*
X0209418Y0127222D01*
X0209309Y0127244D01*
X0209200Y0127271D01*
X0209093Y0127301D01*
X0208986Y0127335D01*
X0208881Y0127373D01*
X0208777Y0127415D01*
X0208675Y0127460D01*
X0208574Y0127509D01*
X0208476Y0127561D01*
X0208379Y0127617D01*
X0208284Y0127677D01*
X0208191Y0127739D01*
X0208101Y0127805D01*
X0208013Y0127874D01*
X0207928Y0127946D01*
X0207845Y0128022D01*
X0207765Y0128100D01*
X0207687Y0128180D01*
X0207613Y0128264D01*
X0207542Y0128350D01*
X0207473Y0128438D01*
X0207408Y0128529D01*
X0207347Y0128623D01*
X0207288Y0128718D01*
X0207233Y0128815D01*
X0207182Y0128914D01*
X0207134Y0129015D01*
X0207089Y0129118D01*
X0207048Y0129222D01*
X0207011Y0129328D01*
X0206978Y0129434D01*
X0206949Y0129542D01*
X0206923Y0129651D01*
X0206901Y0129761D01*
X0206884Y0129871D01*
X0206870Y0129982D01*
X0206860Y0130094D01*
X0206854Y0130205D01*
X0206852Y0130317D01*
X0216557Y0200582D02*
X0216559Y0200692D01*
X0216565Y0200802D01*
X0216575Y0200912D01*
X0216589Y0201021D01*
X0216607Y0201130D01*
X0216628Y0201238D01*
X0216654Y0201345D01*
X0216683Y0201451D01*
X0216717Y0201556D01*
X0216754Y0201660D01*
X0216795Y0201762D01*
X0216839Y0201863D01*
X0216887Y0201962D01*
X0216939Y0202060D01*
X0216994Y0202155D01*
X0217052Y0202248D01*
X0217114Y0202339D01*
X0217179Y0202428D01*
X0217247Y0202515D01*
X0217319Y0202599D01*
X0217393Y0202680D01*
X0217470Y0202759D01*
X0217550Y0202835D01*
X0217633Y0202907D01*
X0217718Y0202977D01*
X0217806Y0203044D01*
X0217896Y0203107D01*
X0217988Y0203167D01*
X0218082Y0203224D01*
X0218179Y0203278D01*
X0218277Y0203327D01*
X0218377Y0203374D01*
X0218479Y0203416D01*
X0218582Y0203455D01*
X0218686Y0203490D01*
X0218792Y0203522D01*
X0218898Y0203549D01*
X0219006Y0203573D01*
X0219114Y0203593D01*
X0219223Y0203609D01*
X0219333Y0203621D01*
X0219443Y0203629D01*
X0219553Y0203633D01*
X0219663Y0203633D01*
X0219773Y0203629D01*
X0219883Y0203621D01*
X0219993Y0203609D01*
X0220102Y0203593D01*
X0220210Y0203573D01*
X0220318Y0203549D01*
X0220424Y0203522D01*
X0220530Y0203490D01*
X0220634Y0203455D01*
X0220737Y0203416D01*
X0220839Y0203374D01*
X0220939Y0203327D01*
X0221037Y0203278D01*
X0221133Y0203224D01*
X0221228Y0203167D01*
X0221320Y0203107D01*
X0221410Y0203044D01*
X0221498Y0202977D01*
X0221583Y0202907D01*
X0221666Y0202835D01*
X0221746Y0202759D01*
X0221823Y0202680D01*
X0221897Y0202599D01*
X0221969Y0202515D01*
X0222037Y0202428D01*
X0222102Y0202339D01*
X0222164Y0202248D01*
X0222222Y0202155D01*
X0222277Y0202060D01*
X0222329Y0201962D01*
X0222377Y0201863D01*
X0222421Y0201762D01*
X0222462Y0201660D01*
X0222499Y0201556D01*
X0222533Y0201451D01*
X0222562Y0201345D01*
X0222588Y0201238D01*
X0222609Y0201130D01*
X0222627Y0201021D01*
X0222641Y0200912D01*
X0222651Y0200802D01*
X0222657Y0200692D01*
X0222659Y0200582D01*
X0222657Y0200472D01*
X0222651Y0200362D01*
X0222641Y0200252D01*
X0222627Y0200143D01*
X0222609Y0200034D01*
X0222588Y0199926D01*
X0222562Y0199819D01*
X0222533Y0199713D01*
X0222499Y0199608D01*
X0222462Y0199504D01*
X0222421Y0199402D01*
X0222377Y0199301D01*
X0222329Y0199202D01*
X0222277Y0199104D01*
X0222222Y0199009D01*
X0222164Y0198916D01*
X0222102Y0198825D01*
X0222037Y0198736D01*
X0221969Y0198649D01*
X0221897Y0198565D01*
X0221823Y0198484D01*
X0221746Y0198405D01*
X0221666Y0198329D01*
X0221583Y0198257D01*
X0221498Y0198187D01*
X0221410Y0198120D01*
X0221320Y0198057D01*
X0221228Y0197997D01*
X0221134Y0197940D01*
X0221037Y0197886D01*
X0220939Y0197837D01*
X0220839Y0197790D01*
X0220737Y0197748D01*
X0220634Y0197709D01*
X0220530Y0197674D01*
X0220424Y0197642D01*
X0220318Y0197615D01*
X0220210Y0197591D01*
X0220102Y0197571D01*
X0219993Y0197555D01*
X0219883Y0197543D01*
X0219773Y0197535D01*
X0219663Y0197531D01*
X0219553Y0197531D01*
X0219443Y0197535D01*
X0219333Y0197543D01*
X0219223Y0197555D01*
X0219114Y0197571D01*
X0219006Y0197591D01*
X0218898Y0197615D01*
X0218792Y0197642D01*
X0218686Y0197674D01*
X0218582Y0197709D01*
X0218479Y0197748D01*
X0218377Y0197790D01*
X0218277Y0197837D01*
X0218179Y0197886D01*
X0218082Y0197940D01*
X0217988Y0197997D01*
X0217896Y0198057D01*
X0217806Y0198120D01*
X0217718Y0198187D01*
X0217633Y0198257D01*
X0217550Y0198329D01*
X0217470Y0198405D01*
X0217393Y0198484D01*
X0217319Y0198565D01*
X0217247Y0198649D01*
X0217179Y0198736D01*
X0217114Y0198825D01*
X0217052Y0198916D01*
X0216994Y0199009D01*
X0216939Y0199104D01*
X0216887Y0199202D01*
X0216839Y0199301D01*
X0216795Y0199402D01*
X0216754Y0199504D01*
X0216717Y0199608D01*
X0216683Y0199713D01*
X0216654Y0199819D01*
X0216628Y0199926D01*
X0216607Y0200034D01*
X0216589Y0200143D01*
X0216575Y0200252D01*
X0216565Y0200362D01*
X0216559Y0200472D01*
X0216557Y0200582D01*
X0121045Y0200582D02*
X0121047Y0200692D01*
X0121053Y0200802D01*
X0121063Y0200912D01*
X0121077Y0201021D01*
X0121095Y0201130D01*
X0121116Y0201238D01*
X0121142Y0201345D01*
X0121171Y0201451D01*
X0121205Y0201556D01*
X0121242Y0201660D01*
X0121283Y0201762D01*
X0121327Y0201863D01*
X0121375Y0201962D01*
X0121427Y0202060D01*
X0121482Y0202155D01*
X0121540Y0202248D01*
X0121602Y0202339D01*
X0121667Y0202428D01*
X0121735Y0202515D01*
X0121807Y0202599D01*
X0121881Y0202680D01*
X0121958Y0202759D01*
X0122038Y0202835D01*
X0122121Y0202907D01*
X0122206Y0202977D01*
X0122294Y0203044D01*
X0122384Y0203107D01*
X0122476Y0203167D01*
X0122570Y0203224D01*
X0122667Y0203278D01*
X0122765Y0203327D01*
X0122865Y0203374D01*
X0122967Y0203416D01*
X0123070Y0203455D01*
X0123174Y0203490D01*
X0123280Y0203522D01*
X0123386Y0203549D01*
X0123494Y0203573D01*
X0123602Y0203593D01*
X0123711Y0203609D01*
X0123821Y0203621D01*
X0123931Y0203629D01*
X0124041Y0203633D01*
X0124151Y0203633D01*
X0124261Y0203629D01*
X0124371Y0203621D01*
X0124481Y0203609D01*
X0124590Y0203593D01*
X0124698Y0203573D01*
X0124806Y0203549D01*
X0124912Y0203522D01*
X0125018Y0203490D01*
X0125122Y0203455D01*
X0125225Y0203416D01*
X0125327Y0203374D01*
X0125427Y0203327D01*
X0125525Y0203278D01*
X0125621Y0203224D01*
X0125716Y0203167D01*
X0125808Y0203107D01*
X0125898Y0203044D01*
X0125986Y0202977D01*
X0126071Y0202907D01*
X0126154Y0202835D01*
X0126234Y0202759D01*
X0126311Y0202680D01*
X0126385Y0202599D01*
X0126457Y0202515D01*
X0126525Y0202428D01*
X0126590Y0202339D01*
X0126652Y0202248D01*
X0126710Y0202155D01*
X0126765Y0202060D01*
X0126817Y0201962D01*
X0126865Y0201863D01*
X0126909Y0201762D01*
X0126950Y0201660D01*
X0126987Y0201556D01*
X0127021Y0201451D01*
X0127050Y0201345D01*
X0127076Y0201238D01*
X0127097Y0201130D01*
X0127115Y0201021D01*
X0127129Y0200912D01*
X0127139Y0200802D01*
X0127145Y0200692D01*
X0127147Y0200582D01*
X0127145Y0200472D01*
X0127139Y0200362D01*
X0127129Y0200252D01*
X0127115Y0200143D01*
X0127097Y0200034D01*
X0127076Y0199926D01*
X0127050Y0199819D01*
X0127021Y0199713D01*
X0126987Y0199608D01*
X0126950Y0199504D01*
X0126909Y0199402D01*
X0126865Y0199301D01*
X0126817Y0199202D01*
X0126765Y0199104D01*
X0126710Y0199009D01*
X0126652Y0198916D01*
X0126590Y0198825D01*
X0126525Y0198736D01*
X0126457Y0198649D01*
X0126385Y0198565D01*
X0126311Y0198484D01*
X0126234Y0198405D01*
X0126154Y0198329D01*
X0126071Y0198257D01*
X0125986Y0198187D01*
X0125898Y0198120D01*
X0125808Y0198057D01*
X0125716Y0197997D01*
X0125622Y0197940D01*
X0125525Y0197886D01*
X0125427Y0197837D01*
X0125327Y0197790D01*
X0125225Y0197748D01*
X0125122Y0197709D01*
X0125018Y0197674D01*
X0124912Y0197642D01*
X0124806Y0197615D01*
X0124698Y0197591D01*
X0124590Y0197571D01*
X0124481Y0197555D01*
X0124371Y0197543D01*
X0124261Y0197535D01*
X0124151Y0197531D01*
X0124041Y0197531D01*
X0123931Y0197535D01*
X0123821Y0197543D01*
X0123711Y0197555D01*
X0123602Y0197571D01*
X0123494Y0197591D01*
X0123386Y0197615D01*
X0123280Y0197642D01*
X0123174Y0197674D01*
X0123070Y0197709D01*
X0122967Y0197748D01*
X0122865Y0197790D01*
X0122765Y0197837D01*
X0122667Y0197886D01*
X0122570Y0197940D01*
X0122476Y0197997D01*
X0122384Y0198057D01*
X0122294Y0198120D01*
X0122206Y0198187D01*
X0122121Y0198257D01*
X0122038Y0198329D01*
X0121958Y0198405D01*
X0121881Y0198484D01*
X0121807Y0198565D01*
X0121735Y0198649D01*
X0121667Y0198736D01*
X0121602Y0198825D01*
X0121540Y0198916D01*
X0121482Y0199009D01*
X0121427Y0199104D01*
X0121375Y0199202D01*
X0121327Y0199301D01*
X0121283Y0199402D01*
X0121242Y0199504D01*
X0121205Y0199608D01*
X0121171Y0199713D01*
X0121142Y0199819D01*
X0121116Y0199926D01*
X0121095Y0200034D01*
X0121077Y0200143D01*
X0121063Y0200252D01*
X0121053Y0200362D01*
X0121047Y0200472D01*
X0121045Y0200582D01*
X0016100Y0202600D02*
X0016102Y0202761D01*
X0016108Y0202921D01*
X0016118Y0203082D01*
X0016132Y0203242D01*
X0016150Y0203402D01*
X0016171Y0203561D01*
X0016197Y0203720D01*
X0016227Y0203878D01*
X0016260Y0204035D01*
X0016298Y0204192D01*
X0016339Y0204347D01*
X0016384Y0204501D01*
X0016433Y0204654D01*
X0016486Y0204806D01*
X0016542Y0204957D01*
X0016603Y0205106D01*
X0016666Y0205254D01*
X0016734Y0205400D01*
X0016805Y0205544D01*
X0016879Y0205686D01*
X0016957Y0205827D01*
X0017039Y0205965D01*
X0017124Y0206102D01*
X0017212Y0206236D01*
X0017304Y0206368D01*
X0017399Y0206498D01*
X0017497Y0206626D01*
X0017598Y0206751D01*
X0017702Y0206873D01*
X0017809Y0206993D01*
X0017919Y0207110D01*
X0018032Y0207225D01*
X0018148Y0207336D01*
X0018267Y0207445D01*
X0018388Y0207550D01*
X0018512Y0207653D01*
X0018638Y0207753D01*
X0018766Y0207849D01*
X0018897Y0207942D01*
X0019031Y0208032D01*
X0019166Y0208119D01*
X0019304Y0208202D01*
X0019443Y0208282D01*
X0019585Y0208358D01*
X0019728Y0208431D01*
X0019873Y0208500D01*
X0020020Y0208566D01*
X0020168Y0208628D01*
X0020318Y0208686D01*
X0020469Y0208741D01*
X0020622Y0208792D01*
X0020776Y0208839D01*
X0020931Y0208882D01*
X0021087Y0208921D01*
X0021243Y0208957D01*
X0021401Y0208988D01*
X0021559Y0209016D01*
X0021718Y0209040D01*
X0021878Y0209060D01*
X0022038Y0209076D01*
X0022198Y0209088D01*
X0022359Y0209096D01*
X0022520Y0209100D01*
X0022680Y0209100D01*
X0022841Y0209096D01*
X0023002Y0209088D01*
X0023162Y0209076D01*
X0023322Y0209060D01*
X0023482Y0209040D01*
X0023641Y0209016D01*
X0023799Y0208988D01*
X0023957Y0208957D01*
X0024113Y0208921D01*
X0024269Y0208882D01*
X0024424Y0208839D01*
X0024578Y0208792D01*
X0024731Y0208741D01*
X0024882Y0208686D01*
X0025032Y0208628D01*
X0025180Y0208566D01*
X0025327Y0208500D01*
X0025472Y0208431D01*
X0025615Y0208358D01*
X0025757Y0208282D01*
X0025896Y0208202D01*
X0026034Y0208119D01*
X0026169Y0208032D01*
X0026303Y0207942D01*
X0026434Y0207849D01*
X0026562Y0207753D01*
X0026688Y0207653D01*
X0026812Y0207550D01*
X0026933Y0207445D01*
X0027052Y0207336D01*
X0027168Y0207225D01*
X0027281Y0207110D01*
X0027391Y0206993D01*
X0027498Y0206873D01*
X0027602Y0206751D01*
X0027703Y0206626D01*
X0027801Y0206498D01*
X0027896Y0206368D01*
X0027988Y0206236D01*
X0028076Y0206102D01*
X0028161Y0205965D01*
X0028243Y0205827D01*
X0028321Y0205686D01*
X0028395Y0205544D01*
X0028466Y0205400D01*
X0028534Y0205254D01*
X0028597Y0205106D01*
X0028658Y0204957D01*
X0028714Y0204806D01*
X0028767Y0204654D01*
X0028816Y0204501D01*
X0028861Y0204347D01*
X0028902Y0204192D01*
X0028940Y0204035D01*
X0028973Y0203878D01*
X0029003Y0203720D01*
X0029029Y0203561D01*
X0029050Y0203402D01*
X0029068Y0203242D01*
X0029082Y0203082D01*
X0029092Y0202921D01*
X0029098Y0202761D01*
X0029100Y0202600D01*
X0029098Y0202439D01*
X0029092Y0202279D01*
X0029082Y0202118D01*
X0029068Y0201958D01*
X0029050Y0201798D01*
X0029029Y0201639D01*
X0029003Y0201480D01*
X0028973Y0201322D01*
X0028940Y0201165D01*
X0028902Y0201008D01*
X0028861Y0200853D01*
X0028816Y0200699D01*
X0028767Y0200546D01*
X0028714Y0200394D01*
X0028658Y0200243D01*
X0028597Y0200094D01*
X0028534Y0199946D01*
X0028466Y0199800D01*
X0028395Y0199656D01*
X0028321Y0199514D01*
X0028243Y0199373D01*
X0028161Y0199235D01*
X0028076Y0199098D01*
X0027988Y0198964D01*
X0027896Y0198832D01*
X0027801Y0198702D01*
X0027703Y0198574D01*
X0027602Y0198449D01*
X0027498Y0198327D01*
X0027391Y0198207D01*
X0027281Y0198090D01*
X0027168Y0197975D01*
X0027052Y0197864D01*
X0026933Y0197755D01*
X0026812Y0197650D01*
X0026688Y0197547D01*
X0026562Y0197447D01*
X0026434Y0197351D01*
X0026303Y0197258D01*
X0026169Y0197168D01*
X0026034Y0197081D01*
X0025896Y0196998D01*
X0025757Y0196918D01*
X0025615Y0196842D01*
X0025472Y0196769D01*
X0025327Y0196700D01*
X0025180Y0196634D01*
X0025032Y0196572D01*
X0024882Y0196514D01*
X0024731Y0196459D01*
X0024578Y0196408D01*
X0024424Y0196361D01*
X0024269Y0196318D01*
X0024113Y0196279D01*
X0023957Y0196243D01*
X0023799Y0196212D01*
X0023641Y0196184D01*
X0023482Y0196160D01*
X0023322Y0196140D01*
X0023162Y0196124D01*
X0023002Y0196112D01*
X0022841Y0196104D01*
X0022680Y0196100D01*
X0022520Y0196100D01*
X0022359Y0196104D01*
X0022198Y0196112D01*
X0022038Y0196124D01*
X0021878Y0196140D01*
X0021718Y0196160D01*
X0021559Y0196184D01*
X0021401Y0196212D01*
X0021243Y0196243D01*
X0021087Y0196279D01*
X0020931Y0196318D01*
X0020776Y0196361D01*
X0020622Y0196408D01*
X0020469Y0196459D01*
X0020318Y0196514D01*
X0020168Y0196572D01*
X0020020Y0196634D01*
X0019873Y0196700D01*
X0019728Y0196769D01*
X0019585Y0196842D01*
X0019443Y0196918D01*
X0019304Y0196998D01*
X0019166Y0197081D01*
X0019031Y0197168D01*
X0018897Y0197258D01*
X0018766Y0197351D01*
X0018638Y0197447D01*
X0018512Y0197547D01*
X0018388Y0197650D01*
X0018267Y0197755D01*
X0018148Y0197864D01*
X0018032Y0197975D01*
X0017919Y0198090D01*
X0017809Y0198207D01*
X0017702Y0198327D01*
X0017598Y0198449D01*
X0017497Y0198574D01*
X0017399Y0198702D01*
X0017304Y0198832D01*
X0017212Y0198964D01*
X0017124Y0199098D01*
X0017039Y0199235D01*
X0016957Y0199373D01*
X0016879Y0199514D01*
X0016805Y0199656D01*
X0016734Y0199800D01*
X0016666Y0199946D01*
X0016603Y0200094D01*
X0016542Y0200243D01*
X0016486Y0200394D01*
X0016433Y0200546D01*
X0016384Y0200699D01*
X0016339Y0200853D01*
X0016298Y0201008D01*
X0016260Y0201165D01*
X0016227Y0201322D01*
X0016197Y0201480D01*
X0016171Y0201639D01*
X0016150Y0201798D01*
X0016132Y0201958D01*
X0016118Y0202118D01*
X0016108Y0202279D01*
X0016102Y0202439D01*
X0016100Y0202600D01*
X0316100Y0202600D02*
X0316102Y0202761D01*
X0316108Y0202921D01*
X0316118Y0203082D01*
X0316132Y0203242D01*
X0316150Y0203402D01*
X0316171Y0203561D01*
X0316197Y0203720D01*
X0316227Y0203878D01*
X0316260Y0204035D01*
X0316298Y0204192D01*
X0316339Y0204347D01*
X0316384Y0204501D01*
X0316433Y0204654D01*
X0316486Y0204806D01*
X0316542Y0204957D01*
X0316603Y0205106D01*
X0316666Y0205254D01*
X0316734Y0205400D01*
X0316805Y0205544D01*
X0316879Y0205686D01*
X0316957Y0205827D01*
X0317039Y0205965D01*
X0317124Y0206102D01*
X0317212Y0206236D01*
X0317304Y0206368D01*
X0317399Y0206498D01*
X0317497Y0206626D01*
X0317598Y0206751D01*
X0317702Y0206873D01*
X0317809Y0206993D01*
X0317919Y0207110D01*
X0318032Y0207225D01*
X0318148Y0207336D01*
X0318267Y0207445D01*
X0318388Y0207550D01*
X0318512Y0207653D01*
X0318638Y0207753D01*
X0318766Y0207849D01*
X0318897Y0207942D01*
X0319031Y0208032D01*
X0319166Y0208119D01*
X0319304Y0208202D01*
X0319443Y0208282D01*
X0319585Y0208358D01*
X0319728Y0208431D01*
X0319873Y0208500D01*
X0320020Y0208566D01*
X0320168Y0208628D01*
X0320318Y0208686D01*
X0320469Y0208741D01*
X0320622Y0208792D01*
X0320776Y0208839D01*
X0320931Y0208882D01*
X0321087Y0208921D01*
X0321243Y0208957D01*
X0321401Y0208988D01*
X0321559Y0209016D01*
X0321718Y0209040D01*
X0321878Y0209060D01*
X0322038Y0209076D01*
X0322198Y0209088D01*
X0322359Y0209096D01*
X0322520Y0209100D01*
X0322680Y0209100D01*
X0322841Y0209096D01*
X0323002Y0209088D01*
X0323162Y0209076D01*
X0323322Y0209060D01*
X0323482Y0209040D01*
X0323641Y0209016D01*
X0323799Y0208988D01*
X0323957Y0208957D01*
X0324113Y0208921D01*
X0324269Y0208882D01*
X0324424Y0208839D01*
X0324578Y0208792D01*
X0324731Y0208741D01*
X0324882Y0208686D01*
X0325032Y0208628D01*
X0325180Y0208566D01*
X0325327Y0208500D01*
X0325472Y0208431D01*
X0325615Y0208358D01*
X0325757Y0208282D01*
X0325896Y0208202D01*
X0326034Y0208119D01*
X0326169Y0208032D01*
X0326303Y0207942D01*
X0326434Y0207849D01*
X0326562Y0207753D01*
X0326688Y0207653D01*
X0326812Y0207550D01*
X0326933Y0207445D01*
X0327052Y0207336D01*
X0327168Y0207225D01*
X0327281Y0207110D01*
X0327391Y0206993D01*
X0327498Y0206873D01*
X0327602Y0206751D01*
X0327703Y0206626D01*
X0327801Y0206498D01*
X0327896Y0206368D01*
X0327988Y0206236D01*
X0328076Y0206102D01*
X0328161Y0205965D01*
X0328243Y0205827D01*
X0328321Y0205686D01*
X0328395Y0205544D01*
X0328466Y0205400D01*
X0328534Y0205254D01*
X0328597Y0205106D01*
X0328658Y0204957D01*
X0328714Y0204806D01*
X0328767Y0204654D01*
X0328816Y0204501D01*
X0328861Y0204347D01*
X0328902Y0204192D01*
X0328940Y0204035D01*
X0328973Y0203878D01*
X0329003Y0203720D01*
X0329029Y0203561D01*
X0329050Y0203402D01*
X0329068Y0203242D01*
X0329082Y0203082D01*
X0329092Y0202921D01*
X0329098Y0202761D01*
X0329100Y0202600D01*
X0329098Y0202439D01*
X0329092Y0202279D01*
X0329082Y0202118D01*
X0329068Y0201958D01*
X0329050Y0201798D01*
X0329029Y0201639D01*
X0329003Y0201480D01*
X0328973Y0201322D01*
X0328940Y0201165D01*
X0328902Y0201008D01*
X0328861Y0200853D01*
X0328816Y0200699D01*
X0328767Y0200546D01*
X0328714Y0200394D01*
X0328658Y0200243D01*
X0328597Y0200094D01*
X0328534Y0199946D01*
X0328466Y0199800D01*
X0328395Y0199656D01*
X0328321Y0199514D01*
X0328243Y0199373D01*
X0328161Y0199235D01*
X0328076Y0199098D01*
X0327988Y0198964D01*
X0327896Y0198832D01*
X0327801Y0198702D01*
X0327703Y0198574D01*
X0327602Y0198449D01*
X0327498Y0198327D01*
X0327391Y0198207D01*
X0327281Y0198090D01*
X0327168Y0197975D01*
X0327052Y0197864D01*
X0326933Y0197755D01*
X0326812Y0197650D01*
X0326688Y0197547D01*
X0326562Y0197447D01*
X0326434Y0197351D01*
X0326303Y0197258D01*
X0326169Y0197168D01*
X0326034Y0197081D01*
X0325896Y0196998D01*
X0325757Y0196918D01*
X0325615Y0196842D01*
X0325472Y0196769D01*
X0325327Y0196700D01*
X0325180Y0196634D01*
X0325032Y0196572D01*
X0324882Y0196514D01*
X0324731Y0196459D01*
X0324578Y0196408D01*
X0324424Y0196361D01*
X0324269Y0196318D01*
X0324113Y0196279D01*
X0323957Y0196243D01*
X0323799Y0196212D01*
X0323641Y0196184D01*
X0323482Y0196160D01*
X0323322Y0196140D01*
X0323162Y0196124D01*
X0323002Y0196112D01*
X0322841Y0196104D01*
X0322680Y0196100D01*
X0322520Y0196100D01*
X0322359Y0196104D01*
X0322198Y0196112D01*
X0322038Y0196124D01*
X0321878Y0196140D01*
X0321718Y0196160D01*
X0321559Y0196184D01*
X0321401Y0196212D01*
X0321243Y0196243D01*
X0321087Y0196279D01*
X0320931Y0196318D01*
X0320776Y0196361D01*
X0320622Y0196408D01*
X0320469Y0196459D01*
X0320318Y0196514D01*
X0320168Y0196572D01*
X0320020Y0196634D01*
X0319873Y0196700D01*
X0319728Y0196769D01*
X0319585Y0196842D01*
X0319443Y0196918D01*
X0319304Y0196998D01*
X0319166Y0197081D01*
X0319031Y0197168D01*
X0318897Y0197258D01*
X0318766Y0197351D01*
X0318638Y0197447D01*
X0318512Y0197547D01*
X0318388Y0197650D01*
X0318267Y0197755D01*
X0318148Y0197864D01*
X0318032Y0197975D01*
X0317919Y0198090D01*
X0317809Y0198207D01*
X0317702Y0198327D01*
X0317598Y0198449D01*
X0317497Y0198574D01*
X0317399Y0198702D01*
X0317304Y0198832D01*
X0317212Y0198964D01*
X0317124Y0199098D01*
X0317039Y0199235D01*
X0316957Y0199373D01*
X0316879Y0199514D01*
X0316805Y0199656D01*
X0316734Y0199800D01*
X0316666Y0199946D01*
X0316603Y0200094D01*
X0316542Y0200243D01*
X0316486Y0200394D01*
X0316433Y0200546D01*
X0316384Y0200699D01*
X0316339Y0200853D01*
X0316298Y0201008D01*
X0316260Y0201165D01*
X0316227Y0201322D01*
X0316197Y0201480D01*
X0316171Y0201639D01*
X0316150Y0201798D01*
X0316132Y0201958D01*
X0316118Y0202118D01*
X0316108Y0202279D01*
X0316102Y0202439D01*
X0316100Y0202600D01*
X0316100Y0022600D02*
X0316102Y0022761D01*
X0316108Y0022921D01*
X0316118Y0023082D01*
X0316132Y0023242D01*
X0316150Y0023402D01*
X0316171Y0023561D01*
X0316197Y0023720D01*
X0316227Y0023878D01*
X0316260Y0024035D01*
X0316298Y0024192D01*
X0316339Y0024347D01*
X0316384Y0024501D01*
X0316433Y0024654D01*
X0316486Y0024806D01*
X0316542Y0024957D01*
X0316603Y0025106D01*
X0316666Y0025254D01*
X0316734Y0025400D01*
X0316805Y0025544D01*
X0316879Y0025686D01*
X0316957Y0025827D01*
X0317039Y0025965D01*
X0317124Y0026102D01*
X0317212Y0026236D01*
X0317304Y0026368D01*
X0317399Y0026498D01*
X0317497Y0026626D01*
X0317598Y0026751D01*
X0317702Y0026873D01*
X0317809Y0026993D01*
X0317919Y0027110D01*
X0318032Y0027225D01*
X0318148Y0027336D01*
X0318267Y0027445D01*
X0318388Y0027550D01*
X0318512Y0027653D01*
X0318638Y0027753D01*
X0318766Y0027849D01*
X0318897Y0027942D01*
X0319031Y0028032D01*
X0319166Y0028119D01*
X0319304Y0028202D01*
X0319443Y0028282D01*
X0319585Y0028358D01*
X0319728Y0028431D01*
X0319873Y0028500D01*
X0320020Y0028566D01*
X0320168Y0028628D01*
X0320318Y0028686D01*
X0320469Y0028741D01*
X0320622Y0028792D01*
X0320776Y0028839D01*
X0320931Y0028882D01*
X0321087Y0028921D01*
X0321243Y0028957D01*
X0321401Y0028988D01*
X0321559Y0029016D01*
X0321718Y0029040D01*
X0321878Y0029060D01*
X0322038Y0029076D01*
X0322198Y0029088D01*
X0322359Y0029096D01*
X0322520Y0029100D01*
X0322680Y0029100D01*
X0322841Y0029096D01*
X0323002Y0029088D01*
X0323162Y0029076D01*
X0323322Y0029060D01*
X0323482Y0029040D01*
X0323641Y0029016D01*
X0323799Y0028988D01*
X0323957Y0028957D01*
X0324113Y0028921D01*
X0324269Y0028882D01*
X0324424Y0028839D01*
X0324578Y0028792D01*
X0324731Y0028741D01*
X0324882Y0028686D01*
X0325032Y0028628D01*
X0325180Y0028566D01*
X0325327Y0028500D01*
X0325472Y0028431D01*
X0325615Y0028358D01*
X0325757Y0028282D01*
X0325896Y0028202D01*
X0326034Y0028119D01*
X0326169Y0028032D01*
X0326303Y0027942D01*
X0326434Y0027849D01*
X0326562Y0027753D01*
X0326688Y0027653D01*
X0326812Y0027550D01*
X0326933Y0027445D01*
X0327052Y0027336D01*
X0327168Y0027225D01*
X0327281Y0027110D01*
X0327391Y0026993D01*
X0327498Y0026873D01*
X0327602Y0026751D01*
X0327703Y0026626D01*
X0327801Y0026498D01*
X0327896Y0026368D01*
X0327988Y0026236D01*
X0328076Y0026102D01*
X0328161Y0025965D01*
X0328243Y0025827D01*
X0328321Y0025686D01*
X0328395Y0025544D01*
X0328466Y0025400D01*
X0328534Y0025254D01*
X0328597Y0025106D01*
X0328658Y0024957D01*
X0328714Y0024806D01*
X0328767Y0024654D01*
X0328816Y0024501D01*
X0328861Y0024347D01*
X0328902Y0024192D01*
X0328940Y0024035D01*
X0328973Y0023878D01*
X0329003Y0023720D01*
X0329029Y0023561D01*
X0329050Y0023402D01*
X0329068Y0023242D01*
X0329082Y0023082D01*
X0329092Y0022921D01*
X0329098Y0022761D01*
X0329100Y0022600D01*
X0329098Y0022439D01*
X0329092Y0022279D01*
X0329082Y0022118D01*
X0329068Y0021958D01*
X0329050Y0021798D01*
X0329029Y0021639D01*
X0329003Y0021480D01*
X0328973Y0021322D01*
X0328940Y0021165D01*
X0328902Y0021008D01*
X0328861Y0020853D01*
X0328816Y0020699D01*
X0328767Y0020546D01*
X0328714Y0020394D01*
X0328658Y0020243D01*
X0328597Y0020094D01*
X0328534Y0019946D01*
X0328466Y0019800D01*
X0328395Y0019656D01*
X0328321Y0019514D01*
X0328243Y0019373D01*
X0328161Y0019235D01*
X0328076Y0019098D01*
X0327988Y0018964D01*
X0327896Y0018832D01*
X0327801Y0018702D01*
X0327703Y0018574D01*
X0327602Y0018449D01*
X0327498Y0018327D01*
X0327391Y0018207D01*
X0327281Y0018090D01*
X0327168Y0017975D01*
X0327052Y0017864D01*
X0326933Y0017755D01*
X0326812Y0017650D01*
X0326688Y0017547D01*
X0326562Y0017447D01*
X0326434Y0017351D01*
X0326303Y0017258D01*
X0326169Y0017168D01*
X0326034Y0017081D01*
X0325896Y0016998D01*
X0325757Y0016918D01*
X0325615Y0016842D01*
X0325472Y0016769D01*
X0325327Y0016700D01*
X0325180Y0016634D01*
X0325032Y0016572D01*
X0324882Y0016514D01*
X0324731Y0016459D01*
X0324578Y0016408D01*
X0324424Y0016361D01*
X0324269Y0016318D01*
X0324113Y0016279D01*
X0323957Y0016243D01*
X0323799Y0016212D01*
X0323641Y0016184D01*
X0323482Y0016160D01*
X0323322Y0016140D01*
X0323162Y0016124D01*
X0323002Y0016112D01*
X0322841Y0016104D01*
X0322680Y0016100D01*
X0322520Y0016100D01*
X0322359Y0016104D01*
X0322198Y0016112D01*
X0322038Y0016124D01*
X0321878Y0016140D01*
X0321718Y0016160D01*
X0321559Y0016184D01*
X0321401Y0016212D01*
X0321243Y0016243D01*
X0321087Y0016279D01*
X0320931Y0016318D01*
X0320776Y0016361D01*
X0320622Y0016408D01*
X0320469Y0016459D01*
X0320318Y0016514D01*
X0320168Y0016572D01*
X0320020Y0016634D01*
X0319873Y0016700D01*
X0319728Y0016769D01*
X0319585Y0016842D01*
X0319443Y0016918D01*
X0319304Y0016998D01*
X0319166Y0017081D01*
X0319031Y0017168D01*
X0318897Y0017258D01*
X0318766Y0017351D01*
X0318638Y0017447D01*
X0318512Y0017547D01*
X0318388Y0017650D01*
X0318267Y0017755D01*
X0318148Y0017864D01*
X0318032Y0017975D01*
X0317919Y0018090D01*
X0317809Y0018207D01*
X0317702Y0018327D01*
X0317598Y0018449D01*
X0317497Y0018574D01*
X0317399Y0018702D01*
X0317304Y0018832D01*
X0317212Y0018964D01*
X0317124Y0019098D01*
X0317039Y0019235D01*
X0316957Y0019373D01*
X0316879Y0019514D01*
X0316805Y0019656D01*
X0316734Y0019800D01*
X0316666Y0019946D01*
X0316603Y0020094D01*
X0316542Y0020243D01*
X0316486Y0020394D01*
X0316433Y0020546D01*
X0316384Y0020699D01*
X0316339Y0020853D01*
X0316298Y0021008D01*
X0316260Y0021165D01*
X0316227Y0021322D01*
X0316197Y0021480D01*
X0316171Y0021639D01*
X0316150Y0021798D01*
X0316132Y0021958D01*
X0316118Y0022118D01*
X0316108Y0022279D01*
X0316102Y0022439D01*
X0316100Y0022600D01*
M02*
