G75*
%MOIN*%
%OFA0B0*%
%FSLAX25Y25*%
%IPPOS*%
%LPD*%
%AMOC8*
5,1,8,0,0,1.08239X$1,22.5*
%
%ADD10C,0.06600*%
%ADD11C,0.05740*%
%ADD12C,0.13055*%
%ADD13C,0.08500*%
%ADD14C,0.10000*%
%ADD15C,0.07400*%
%ADD16R,0.04724X0.04724*%
%ADD17C,0.01600*%
%ADD18C,0.03569*%
%ADD19C,0.03200*%
D10*
X0046800Y0112600D03*
X0048400Y0122600D03*
X0046800Y0132600D03*
X0048400Y0142600D03*
X0046800Y0152600D03*
X0048400Y0162600D03*
X0046800Y0172600D03*
X0048400Y0182600D03*
X0246800Y0182600D03*
X0248400Y0172600D03*
X0246800Y0162600D03*
X0248400Y0152600D03*
X0246800Y0142600D03*
X0248400Y0132600D03*
X0246800Y0122600D03*
X0248400Y0112600D03*
X0246800Y0102600D03*
X0248400Y0192600D03*
X0282600Y0207600D03*
X0292600Y0207600D03*
X0302600Y0207600D03*
D11*
X0294801Y0086380D02*
X0289061Y0086380D01*
X0289061Y0076537D02*
X0294801Y0076537D01*
X0294801Y0068663D02*
X0289061Y0068663D01*
X0289061Y0058820D02*
X0294801Y0058820D01*
D12*
X0302600Y0046734D03*
X0302600Y0098466D03*
D13*
X0036744Y0037757D03*
X0036744Y0057443D03*
X0085956Y0057443D03*
X0099244Y0057443D03*
X0099244Y0037757D03*
X0085956Y0037757D03*
X0148456Y0037757D03*
X0161744Y0037757D03*
X0161744Y0057443D03*
X0148456Y0057443D03*
X0210956Y0057443D03*
X0224244Y0057443D03*
X0224244Y0037757D03*
X0210956Y0037757D03*
X0273456Y0037757D03*
X0273456Y0057443D03*
D14*
X0261183Y0147600D03*
X0261183Y0197600D03*
X0084017Y0197600D03*
X0084017Y0147600D03*
D15*
X0316200Y0149800D03*
X0334000Y0149800D03*
X0334000Y0175400D03*
X0316200Y0175400D03*
D16*
X0320966Y0186350D03*
X0329234Y0186350D03*
D17*
X0328850Y0184716D01*
X0328850Y0180100D01*
X0326350Y0177600D01*
X0326350Y0170100D01*
X0317600Y0161350D01*
X0313850Y0160100D02*
X0313850Y0157600D01*
X0308850Y0152600D01*
X0308850Y0111350D01*
X0316350Y0103850D01*
X0316350Y0085100D01*
X0300100Y0068850D01*
X0292118Y0068850D01*
X0291931Y0068663D01*
X0292118Y0076350D02*
X0291931Y0076537D01*
X0292118Y0076350D02*
X0301350Y0076350D01*
X0312600Y0087600D01*
X0312600Y0102600D01*
X0305100Y0110100D01*
X0305100Y0155100D01*
X0308850Y0158850D01*
X0313850Y0160100D02*
X0308850Y0165100D01*
X0305100Y0166350D02*
X0305100Y0172600D01*
X0301350Y0176350D01*
X0282600Y0176350D01*
X0253850Y0192600D01*
X0248400Y0192600D01*
X0246800Y0182600D02*
X0151350Y0182600D01*
X0140100Y0171350D01*
X0140100Y0131350D01*
X0186350Y0157600D02*
X0206350Y0177600D01*
X0238850Y0177600D01*
X0243850Y0172600D01*
X0248400Y0172600D01*
X0257600Y0167600D02*
X0257600Y0177600D01*
X0252600Y0182600D01*
X0246800Y0182600D01*
X0258400Y0162600D02*
X0286350Y0162600D01*
X0296350Y0172600D01*
X0305100Y0166350D02*
X0300100Y0161350D01*
X0300100Y0141350D01*
X0300100Y0136350D02*
X0300100Y0122600D01*
X0292600Y0115100D01*
X0280100Y0115100D01*
X0280100Y0137600D01*
X0286350Y0143850D01*
X0286350Y0150100D01*
X0293850Y0163850D02*
X0293850Y0122600D01*
X0291931Y0086380D02*
X0291960Y0086350D01*
X0248400Y0112600D02*
X0240100Y0112600D01*
X0221350Y0093850D01*
X0170100Y0093850D01*
X0210100Y0167600D02*
X0245100Y0132600D01*
X0248400Y0132600D01*
X0248400Y0152600D02*
X0233850Y0152600D01*
X0213850Y0172600D01*
X0248400Y0152600D02*
X0258400Y0162600D01*
X0287600Y0180100D02*
X0300100Y0192600D01*
X0300100Y0200100D01*
X0320966Y0186350D02*
X0322600Y0186350D01*
X0322600Y0180100D01*
D18*
X0322600Y0180100D03*
X0308850Y0165100D03*
X0308850Y0158850D03*
X0317600Y0161350D03*
X0293850Y0163850D03*
X0296350Y0172600D03*
X0287600Y0180100D03*
X0300100Y0200100D03*
X0257600Y0167600D03*
X0286350Y0150100D03*
X0300100Y0141350D03*
X0300100Y0136350D03*
X0293850Y0122600D03*
X0280100Y0115100D03*
X0210100Y0167600D03*
X0213850Y0172600D03*
X0186350Y0157600D03*
X0140100Y0131350D03*
X0170100Y0093850D03*
D19*
X0246800Y0102600D02*
X0253850Y0102600D01*
X0261350Y0110100D01*
X0261350Y0147600D01*
X0261183Y0147600D01*
X0261350Y0110100D02*
X0285070Y0086380D01*
X0291931Y0086380D01*
X0266380Y0086380D01*
X0262600Y0082600D01*
X0262600Y0042600D01*
X0267600Y0037600D01*
X0273299Y0037600D01*
X0273456Y0037757D01*
X0084017Y0147600D02*
X0084017Y0197600D01*
M02*
