%
M48
M72
T01C0.0197
T02C0.0374
T03C0.0394
T04C0.0400
T05C0.0433
T06C0.0472
T07C0.0610
T08C0.0630
T09C0.0906
T10C0.1300
%
T01
X16973Y9385
X14010Y13135
X16698Y13823
X21010Y16760
X21385Y17260
X27010Y17760
X27510Y17260
X27510Y16260
X28635Y15010
X30010Y14135
X30010Y13635
X29385Y12260
X28010Y11510
X30885Y15885
X30885Y16510
X31760Y16135
X29385Y16385
X29635Y17260
X28760Y18010
X30010Y20010
X32260Y18010
T02
X29193Y8638
X29193Y7654
X29193Y6866
X29193Y5882
T03
X24680Y10260
X24840Y11260
X24680Y12260
X24840Y13260
X24680Y14260
X24840Y15260
X24680Y16260
X24840Y17260
X24680Y18260
X24840Y19260
X26118Y19760
X28260Y20760
X29260Y20760
X30260Y20760
X26118Y14760
X8402Y14760
X4840Y14260
X4680Y13260
X4840Y12260
X4680Y11260
X4680Y15260
X4840Y16260
X4680Y17260
X4840Y18260
X8402Y19760
T04
X31620Y17540
X33400Y17540
X33400Y14980
X31620Y14980
T05
X12732Y13032
T06
X14846Y5744
X16174Y5744
X16174Y3776
X14846Y3776
X9924Y3776
X8596Y3776
X8596Y5744
X9924Y5744
X3674Y5744
X3674Y3776
X21096Y3776
X22424Y3776
X22424Y5744
X21096Y5744
X27346Y5744
X27346Y3776
T07
X21961Y20058
X12410Y20058
T08
X21000Y13032
T09
X30260Y9847
X30260Y4673
T10
X2260Y2260
X2260Y20260
X32260Y20260
X32260Y2260
M30
